<?xml version="1.0" encoding="utf-8"?>
<!-- Generator: Adobe Illustrator 23.0.0, SVG Export Plug-In . SVG Version: 6.00 Build 0)  -->
<svg version="1.1" id="Layer_1" xmlns="http://www.w3.org/2000/svg" xmlns:xlink="http://www.w3.org/1999/xlink" x="0px" y="0px"
	 viewBox="0 0 58 58" style="enable-background:new 0 0 58 58;" xml:space="preserve">
<style type="text/css">
	.st0{fill:#565656;}
	.st1{fill:#4267B2;}
	.st2{enable-background:new    ;}
	.st3{fill:#FFFFFF;}
</style>
<title>f-ogo_RGB_HEX-58</title>
<rect x="0.1" class="st0" width="58" height="58"/>
<path class="st1" d="M29,29"/>
<g>
	<g class="st2">
		<path class="st3" d="M13.5,25.8c0,0-0.4-0.1-1.1-0.2s-1.4-0.4-2.1-0.7s-1.2-0.7-1.8-1.2l1.5-1.8c0.6,0.6,1.4,1,2.1,1.3
			s1.6,0.4,2.5,0.4c1.2,0,2.2-0.2,2.9-0.7s1-1.1,1-1.9v0c0-0.6-0.2-1.1-0.5-1.4s-0.7-0.6-1.2-0.8s-1.1-0.3-1.9-0.5c0,0,0,0-0.1,0
			s-0.1,0-0.1,0l-0.2,0c-1.1-0.2-2.1-0.4-2.8-0.7s-1.3-0.7-1.8-1.3c-0.5-0.7-0.8-1.6-0.8-2.8v0c0-1.1,0.2-2,0.7-2.7s1.2-1.3,2.1-1.7
			s2-0.6,3.3-0.6c0.6,0,1.2,0.1,1.8,0.2s1.2,0.3,1.7,0.6s1.1,0.6,1.7,1l-1.4,1.9c-0.6-0.5-1.3-0.8-1.9-1.1s-1.3-0.4-1.9-0.4
			c-1.2,0-2.1,0.2-2.7,0.7s-1,1.1-1,2v0c0,0.6,0.2,1,0.5,1.4s0.7,0.6,1.2,0.7s1.2,0.3,2.1,0.5c0,0,0.1,0,0.1,0s0.1,0,0.1,0
			c0,0,0.1,0,0.1,0s0.1,0,0.1,0c1,0.2,1.9,0.5,2.6,0.8s1.3,0.8,1.7,1.4s0.7,1.5,0.7,2.6v0c0,1-0.2,1.9-0.7,2.7s-1.2,1.3-2.1,1.7
			s-2.1,0.6-3.4,0.6C13.9,25.8,13.5,25.8,13.5,25.8z"/>
		<path class="st3" d="M23.1,8.6h2.2l8.3,13.2l-0.3,0.3V8.6h2.4v17h-2.2l-8.3-13l0.3-0.3v13.3h-2.4V8.6z"/>
		<path class="st3" d="M42.6,25.8c0,0-0.4-0.1-1.1-0.2s-1.4-0.4-2.1-0.7s-1.2-0.7-1.8-1.2l1.5-1.8c0.6,0.6,1.4,1,2.1,1.3
			s1.6,0.4,2.5,0.4c1.2,0,2.2-0.2,2.9-0.7s1-1.1,1-1.9v0c0-0.6-0.2-1.1-0.5-1.4s-0.7-0.6-1.2-0.8s-1.1-0.3-1.9-0.5c0,0,0,0-0.1,0
			s-0.1,0-0.1,0l-0.2,0c-1.1-0.2-2.1-0.4-2.8-0.7s-1.3-0.7-1.8-1.3c-0.5-0.7-0.8-1.6-0.8-2.8v0c0-1.1,0.2-2,0.7-2.7s1.2-1.3,2.1-1.7
			s2-0.6,3.3-0.6c0.6,0,1.2,0.1,1.8,0.2s1.2,0.3,1.7,0.6s1.1,0.6,1.7,1l-1.4,1.9c-0.6-0.5-1.3-0.8-1.9-1.1s-1.3-0.4-1.9-0.4
			c-1.2,0-2.1,0.2-2.7,0.7s-1,1.1-1,2v0c0,0.6,0.2,1,0.5,1.4s0.7,0.6,1.2,0.7s1.2,0.3,2.1,0.5c0,0,0.1,0,0.1,0s0.1,0,0.1,0
			c0,0,0.1,0,0.1,0s0.1,0,0.1,0c1,0.2,1.9,0.5,2.6,0.8s1.3,0.8,1.7,1.4s0.7,1.5,0.7,2.6v0c0,1-0.2,1.9-0.7,2.7s-1.2,1.3-2.1,1.7
			s-2.1,0.6-3.4,0.6C43,25.8,42.6,25.8,42.6,25.8z"/>
	</g>
</g>
<g>
	<g class="st2">
		<path class="st3" d="M9.2,49.7H6.8v-17h2.4V49.7z"/>
		<path class="st3" d="M16,49.8c0,0-0.4-0.3-1.3-0.8s-1.6-1.3-2.1-2.2s-0.7-2.1-0.7-3.3v-4.7c0-1.3,0.2-2.4,0.7-3.3s1.2-1.7,2.1-2.2
			s1.9-0.8,3.1-0.8c1,0,1.9,0.2,2.7,0.6s1.5,1,2.1,1.8s0.9,1.7,1.1,2.7h-2.4c-0.1-0.5-0.4-1-0.7-1.4s-0.8-0.7-1.2-1s-1-0.3-1.5-0.3
			c-0.7,0-1.3,0.2-1.8,0.5s-0.9,0.8-1.2,1.4s-0.4,1.3-0.4,2.1v4.7c0,0.8,0.1,1.5,0.4,2.1s0.7,1.1,1.2,1.4s1.1,0.5,1.8,0.5
			c0.5,0,1-0.1,1.5-0.3s0.9-0.5,1.2-0.9s0.6-0.9,0.7-1.5h2.4c-0.2,1-0.6,1.9-1.1,2.7s-1.2,1.4-2.1,1.8s-1.7,0.6-2.7,0.6
			C16.6,49.8,16,49.8,16,49.8z"/>
		<path class="st3" d="M28.3,49.1c-0.9-0.5-1.6-1.3-2.1-2.2s-0.7-2-0.7-3.3v-4.8c0-1.3,0.2-2.3,0.7-3.3s1.2-1.7,2.1-2.2
			s2-0.8,3.1-0.8s2.2,0.3,3.1,0.8s1.6,1.3,2.1,2.2s0.7,2,0.7,3.3v4.8c0,1.3-0.2,2.3-0.7,3.3s-1.2,1.7-2.1,2.2s-2,0.8-3.1,0.8
			S29.2,49.6,28.3,49.1z M33.3,47c0.5-0.3,0.9-0.8,1.2-1.3s0.4-1.3,0.4-2v-5c0-0.8-0.1-1.4-0.4-2s-0.7-1-1.2-1.3s-1.2-0.5-1.9-0.5
			s-1.3,0.2-1.9,0.5s-0.9,0.8-1.2,1.3s-0.4,1.3-0.4,2v5c0,0.8,0.1,1.4,0.4,2s0.7,1,1.2,1.3s1.2,0.5,1.9,0.5S32.8,47.3,33.3,47z"/>
		<path class="st3" d="M40.1,32.6h2.2l8.3,13.2l-0.3,0.3V32.6h2.4v17h-2.2l-8.3-13l0.3-0.3v13.3h-2.4V32.6z"/>
	</g>
</g>
</svg>
